<?xml version="1.0" standalone="no"?>
<!DOCTYPE svg PUBLIC "-//W3C//DTD SVG 20010904//EN"
 "http://www.w3.org/TR/2001/REC-SVG-20010904/DTD/svg10.dtd">
<svg version="1.0" xmlns="http://www.w3.org/2000/svg"
 width="512.000000pt" height="512.000000pt" viewBox="0 0 512.000000 512.000000"
 preserveAspectRatio="xMidYMid meet">

<g transform="translate(0.000000,512.000000) scale(0.100000,-0.100000)"
fill="#000000" stroke="none">
<path d="M841 4624 c-169 -45 -301 -180 -346 -351 -23 -86 -23 -3340 0 -3426
45 -173 178 -307 350 -352 52 -13 260 -15 1715 -15 1805 0 1705 -3 1822 56 71
36 159 123 197 193 65 122 61 8 61 1831 0 1455 -2 1663 -15 1715 -45 172 -179
305 -352 350 -85 22 -3349 21 -3432 -1z m3405 -330 c15 -11 37 -33 48 -48 l21
-27 0 -1659 0 -1659 -21 -27 c-11 -15 -33 -37 -48 -48 l-27 -21 -1659 0 -1659
0 -27 21 c-15 11 -37 33 -48 48 -21 27 -21 29 -24 1659 -1 898 0 1646 3 1664
7 40 49 91 90 109 25 11 323 13 1677 11 1646 -2 1647 -2 1674 -23z"/>
<path d="M3615 3506 c-17 -7 -366 -352 -777 -766 l-747 -753 -284 276 c-175
170 -295 279 -311 283 -42 10 -111 -1 -144 -24 -59 -43 -81 -146 -44 -207 26
-43 687 -688 720 -702 36 -16 86 -16 125 1 39 16 1656 1642 1674 1683 20 46
16 106 -10 144 -48 72 -128 97 -202 65z"/>
</g>
</svg>
