<?xml version="1.0" standalone="no"?>
<!DOCTYPE svg PUBLIC "-//W3C//DTD SVG 20010904//EN"
 "http://www.w3.org/TR/2001/REC-SVG-20010904/DTD/svg10.dtd">
<svg version="1.0" xmlns="http://www.w3.org/2000/svg"
 width="512.000000pt" height="512.000000pt" viewBox="0 0 512.000000 512.000000"
 preserveAspectRatio="xMidYMid meet">

<g transform="translate(0.000000,512.000000) scale(0.100000,-0.100000)"
fill="#000000" stroke="none">
<path d="M4135 5099 c-27 -6 -79 -24 -115 -41 -56 -27 -99 -65 -315 -279
l-250 -248 522 -523 523 -523 251 250 c137 138 270 276 293 307 81 106 96 245
41 367 -21 45 -74 104 -288 319 -268 271 -340 330 -431 357 -67 20 -170 26
-231 14z"/>
<path d="M1860 2935 l-1315 -1315 520 -520 520 -520 1320 1320 1320 1320 -515
515 c-283 283 -519 515 -525 515 -6 0 -602 -592 -1325 -1315z"/>
<path d="M131 734 c-92 -415 -131 -606 -127 -629 7 -37 39 -70 83 -85 27 -10
109 8 619 131 324 78 591 144 594 146 5 4 -1021 1033 -1031 1033 -3 0 -65
-268 -138 -596z"/>
</g>
</svg>
